HIERARCHY
ROOT Hips
{
	OFFSET 0.00000 0.00000 0.00000
	CHANNELS 6 Xposition Yposition Zposition Zrotation Yrotation Xrotation 
	JOINT LHipJoint
	{
		OFFSET 0 0 0
		CHANNELS 3 Zrotation Yrotation Xrotation
		JOINT LeftUpLeg
		{
			OFFSET 1.56857 -1.73443 1.15205
			CHANNELS 3 Zrotation Yrotation Xrotation
			JOINT LeftLeg
			{
				OFFSET 2.39362 -6.57643 0.00000
				CHANNELS 3 Zrotation Yrotation Xrotation
				JOINT LeftFoot
				{
					OFFSET 2.50952 -6.89485 0.00000
					CHANNELS 3 Zrotation Yrotation Xrotation
					JOINT LeftToeBase
					{
						OFFSET 0.17171 -0.47178 1.88682
						CHANNELS 3 Zrotation Yrotation Xrotation
						End Site
						{
							OFFSET 0.00000 -0.00000 0.98146
						}
					}
				}
			}
		}
	}
	JOINT RHipJoint
	{
		OFFSET 0 0 0
		CHANNELS 3 Zrotation Yrotation Xrotation
		JOINT RightUpLeg
		{
			OFFSET -1.28153 -1.73443 1.15205
			CHANNELS 3 Zrotation Yrotation Xrotation
			JOINT RightLeg
			{
				OFFSET -2.26861 -6.23296 0.00000
				CHANNELS 3 Zrotation Yrotation Xrotation
				JOINT RightFoot
				{
					OFFSET -2.54143 -6.98254 0.00000
					CHANNELS 3 Zrotation Yrotation Xrotation
					JOINT RightToeBase
					{
						OFFSET -0.23309 -0.64041 1.93119
						CHANNELS 3 Zrotation Yrotation Xrotation
						End Site
						{
							OFFSET -0.00000 -0.00000 1.02013
						}
					}
				}
			}
		}
	}
	JOINT LowerBack
	{
		OFFSET 0 0 0
		CHANNELS 3 Zrotation Yrotation Xrotation
		JOINT Spine
		{
			OFFSET -0.07096 2.10460 -0.27878
			CHANNELS 3 Zrotation Yrotation Xrotation
			JOINT Spine1
			{
				OFFSET -0.00826 2.13662 -0.08279
				CHANNELS 3 Zrotation Yrotation Xrotation
				JOINT Neck
				{
					OFFSET 0 0 0
					CHANNELS 3 Zrotation Yrotation Xrotation
					JOINT Neck1
					{
						OFFSET 0.03239 1.77799 0.24435
						CHANNELS 3 Zrotation Yrotation Xrotation
						JOINT Head
						{
							OFFSET 0.01026 1.74194 -0.49664
							CHANNELS 3 Zrotation Yrotation Xrotation
							End Site
							{
								OFFSET 0.00170 1.83057 -0.19653
							}
						}
					}
				}
				JOINT LeftShoulder
				{
					OFFSET 0 0 0
					CHANNELS 3 Zrotation Yrotation Xrotation
					JOINT LeftArm
					{
						OFFSET 3.19178 1.35907 -0.31412
						CHANNELS 3 Zrotation Yrotation Xrotation
						JOINT LeftForeArm
						{
							OFFSET 4.85247 -0.00000 -0.00000
							CHANNELS 3 Zrotation Yrotation Xrotation
							JOINT LeftHand
							{
								OFFSET 3.55584 -0.00000 0.00000
								CHANNELS 3 Zrotation Yrotation Xrotation
								JOINT LeftFingerBase
								{
									OFFSET 0 0 0
									CHANNELS 3 Zrotation Yrotation Xrotation
									JOINT LeftHandIndex1
									{
										OFFSET 0.69320 -0.00000 0.00000
										CHANNELS 3 Zrotation Yrotation Xrotation
										End Site
										{
											OFFSET 0.55888 -0.00000 0.00000
										}
									}
								}
								JOINT LThumb
								{
									OFFSET 0 0 0
									CHANNELS 3 Zrotation Yrotation Xrotation
									End Site
									{
										OFFSET 0.56741 -0.00000 0.56741
									}
								}
							}
						}
					}
				}
				JOINT RightShoulder
				{
					OFFSET 0 0 0
					CHANNELS 3 Zrotation Yrotation Xrotation
					JOINT RightArm
					{
						OFFSET -3.28999 1.24191 -0.26899
						CHANNELS 3 Zrotation Yrotation Xrotation
						JOINT RightForeArm
						{
							OFFSET -4.64462 -0.00000 0.00000
							CHANNELS 3 Zrotation Yrotation Xrotation
							JOINT RightHand
							{
								OFFSET -3.40703 -0.00000 0.00000
								CHANNELS 3 Zrotation Yrotation Xrotation
								JOINT RightFingerBase
								{
									OFFSET 0 0 0
									CHANNELS 3 Zrotation Yrotation Xrotation
									JOINT RightHandIndex1
									{
										OFFSET -0.61958 -0.00000 0.00000
										CHANNELS 3 Zrotation Yrotation Xrotation
										End Site
										{
											OFFSET -0.49952 -0.00000 0.00000
										}
									}
								}
								JOINT RThumb
								{
									OFFSET 0 0 0
									CHANNELS 3 Zrotation Yrotation Xrotation
									End Site
									{
										OFFSET -0.50715 -0.00000 0.50715
									}
								}
							}
						}
					}
				}
			}
		}
	}
}
MOTION
Frames: 12
Frame Time: .0083333
-28.1254 17.0674 0.5034 0 0 0 0 0 0 -21 0 0 0 0 0 0 0 0 0 0 0 0 0 0 21 0 0 0 0 0 0 0 0 0 0 0 0 0 0 0 0 0 0 0 0 0 0 -16 0 0 21 0 0 11 0 0 0 -8 0 0 0 0 0 0 0 0 0 0 0 0 0 0 0 0 0 0 0 0 8 0 0 0 0 0 0 0 0 0 0 0 0 0 0 0 0 0
-28.1254 17.0674 0.5034 33.3804 86.2443 33.8726 0.0000 0.0000 0.0000 -15.8924 2.6047 11.8512 0.0320 -1.1555 -3.1769 0.1404 8.6946 -14.7409 0.5092 -4.5743 -12.6982 0.0000 0.0000 0.0000 12.4759 -7.0641 7.7993 -0.0024 -0.3183 0.8745 -0.7227 3.0196 -15.3204 -0.1396 -2.4077 6.6337 -4.1020 1.3883 2.2690 -0.2096 1.7251 -0.7495 2.0102 0.9158 -2.1582 4.2714 1.8999 -22.6963 -1.9525 1.7641 21.7332 -1.1289 0.9521 10.8197 -0.0000 0.0000 0.0000 -87.1641 2.1281 39.4068 12.1051 -19.9621 -2.1380 -0.0000 -0.0000 16.7476 11.9910 -25.3038 -5.1871 -7.1250 0.0000 -0.0000 -10.7104 4.5648 10.0039 -0.0000 0.0000 0.0000 86.0600 -5.3858 38.2565 -16.1496 25.7230 -3.7106 0.0000 0.0000 5.7731 -11.3313 -30.9109 5.8773 7.1250 -0.0000 -0.0000 23.2336 -59.8592 -8.7087
-28.1209 17.0658 0.5019 34.5097 86.1060 35.0624 0.0000 0.0000 0.0000 -15.9634 2.9777 11.5786 0.0290 -1.0995 -3.0225 0.1611 8.3150 -14.6061 0.5067 -4.5630 -12.6662 0.0000 0.0000 0.0000 12.2641 -7.1972 7.6477 -0.0032 -0.3630 0.9973 -0.7228 3.2737 -15.2855 -0.1377 -2.3921 6.5906 -4.2127 1.4161 2.1629 -0.2801 1.7631 -0.7643 2.0005 0.9356 -2.1177 4.2552 1.8676 -22.7111 -1.8823 1.7061 21.7661 -1.1099 0.9337 10.8319 -0.0000 -0.0000 0.0000 -87.0853 2.1570 39.5008 12.1519 -20.0320 -2.1540 -0.0000 -0.0000 16.6703 12.9833 -25.4465 -5.6575 -7.1250 0.0000 -0.0000 -10.1161 4.2970 9.4816 -0.0000 -0.0000 0.0000 86.1412 -5.3394 38.1629 -16.0977 25.6529 -3.6881 0.0000 0.0000 5.8265 -11.3265 -30.8367 5.8622 7.1250 -0.0000 -0.0000 23.1781 -59.7906 -8.6482
-28.1253 17.0657 0.5042 33.2784 86.3151 33.8151 0.0000 0.0000 0.0000 -15.7446 2.8130 11.5550 0.0267 -1.0557 -2.9022 0.1639 8.2734 -14.5996 0.4654 -4.3757 -12.1361 0.0000 0.0000 0.0000 12.5184 -7.1632 7.6563 -0.0034 -0.3782 1.0391 -0.7366 3.1552 -15.4519 -0.1333 -2.3533 6.4832 -4.0109 1.3977 2.2478 -0.2731 1.7407 -0.7407 1.8940 0.9215 -2.1334 4.2923 1.8513 -22.9141 -1.8065 1.6403 21.8660 -1.0986 0.9163 10.9042 0.0000 -0.0000 0.0000 -86.9556 2.0623 39.7606 12.1598 -20.0438 -2.1567 -0.0000 -0.0000 16.4835 15.0636 -25.2080 -6.5391 -7.1250 0.0000 -0.0000 -8.8384 4.2546 8.2591 0.0000 -0.0000 0.0000 86.2345 -5.2334 38.1140 -16.0618 25.6044 -3.6726 0.0000 0.0000 5.8061 -11.4261 -30.6416 5.8812 7.1250 -0.0000 -0.0000 22.9172 -59.6358 -8.4590
-28.1254 17.0654 0.5062 31.1055 86.3730 31.6073 0.0000 0.0000 0.0000 -15.6567 2.5468 11.7607 0.0281 -1.0817 -2.9737 0.1471 8.5892 -14.7168 0.4434 -4.2723 -11.8441 0.0000 0.0000 0.0000 12.7239 -7.0948 7.6932 -0.0036 -0.3885 1.0674 -0.7426 3.1143 -15.5234 -0.1226 -2.2577 6.2183 -3.8583 1.3727 2.2712 -0.2499 1.7119 -0.7059 1.8338 0.9041 -2.1049 4.3116 1.9071 -22.9776 -1.7718 1.6990 21.8878 -1.0796 0.9488 10.9261 -0.0000 -0.0000 0.0000 -86.9121 1.9559 39.7555 12.1107 -19.9704 -2.1399 -0.0000 -0.0000 16.4332 13.6806 -25.2871 -5.9361 -7.1250 0.0000 -0.0000 -9.6842 4.3644 9.0520 -0.0000 -0.0000 0.0000 86.2435 -5.1719 38.2990 -16.0674 25.6119 -3.6750 0.0000 0.0000 5.7364 -11.5605 -30.6416 5.9518 7.1250 -0.0000 -0.0000 22.7778 -59.6667 -8.4212
-28.1221 17.0635 0.5066 30.8876 86.2745 31.4026 0.0000 0.0000 0.0000 -15.8072 2.3473 11.9481 0.0311 -1.1392 -3.1319 0.1347 8.8953 -14.8966 0.4567 -4.3352 -12.0217 0.0000 0.0000 0.0000 12.6904 -7.0514 7.6913 -0.0036 -0.3881 1.0665 -0.7370 3.1801 -15.4531 -0.1183 -2.2175 6.1072 -4.0054 1.3937 2.2311 -0.1720 1.7382 -0.7178 1.9957 0.9197 -2.1033 4.1585 1.8927 -22.9210 -1.7590 1.7339 21.9009 -1.0444 0.9540 10.9197 0.0000 0.0000 0.0000 -87.0484 1.9608 39.7556 12.0898 -19.9392 -2.1328 -0.0000 -0.0000 16.4607 14.8423 -24.8487 -6.3542 -7.1250 0.0000 -0.0000 -8.9506 4.6465 8.3000 0.0000 0.0000 0.0000 86.0801 -5.2213 38.4059 -16.1009 25.6573 -3.6896 0.0000 0.0000 5.6958 -11.6613 -30.7387 6.0218 7.1250 -0.0000 -0.0000 22.7511 -59.7786 -8.4721
-28.1202 17.0623 0.5067 30.9877 86.2746 31.5025 0.0000 0.0000 0.0000 -15.8092 2.3429 11.9640 0.0316 -1.1482 -3.1566 0.1432 8.8474 -14.9654 0.4378 -4.2455 -11.7685 0.0000 0.0000 0.0000 12.7129 -6.9903 7.7560 -0.0032 -0.3662 1.0061 -0.7346 3.1398 -15.4327 -0.1295 -2.3195 6.3895 -3.9953 1.4166 2.2158 -0.1848 1.7695 -0.7175 1.9760 0.9350 -2.0957 4.1321 1.8457 -22.8750 -1.7388 1.6749 21.9014 -1.0422 0.9281 10.9088 0.0000 -0.0000 0.0000 -87.0302 1.9288 39.8523 12.0723 -19.9130 -2.1269 -0.0000 -0.0000 16.4794 14.0035 -25.0259 -6.0225 -7.1250 0.0000 -0.0000 -9.4729 4.5825 8.8094 0.0000 -0.0000 0.0000 86.0963 -5.2700 38.3552 -16.1549 25.7303 -3.7130 0.0000 0.0000 5.7295 -11.6868 -30.7917 6.0445 7.1250 -0.0000 -0.0000 22.7674 -59.8329 -8.5083
-28.1174 17.0624 0.5061 30.9494 86.3236 31.4500 0.0000 0.0000 0.0000 -15.7761 2.3167 11.9944 0.0318 -1.1518 -3.1667 0.1443 8.8275 -14.9578 0.3947 -4.0337 -11.1716 0.0000 0.0000 0.0000 12.7463 -6.9833 7.8367 -0.0027 -0.3381 0.9290 -0.7394 3.0562 -15.4971 -0.1300 -2.3239 6.4017 -3.9515 1.4061 2.2298 -0.1915 1.7559 -0.7210 1.9447 0.9278 -2.1046 4.1830 1.8340 -22.8166 -1.7705 1.6517 21.8766 -1.0659 0.9180 10.8888 0.0000 -0.0000 0.0000 -87.0383 1.9200 39.7154 12.0545 -19.8864 -2.1208 -0.0000 -0.0000 16.6668 14.9498 -24.9353 -6.4228 -7.1250 0.0000 -0.0000 -8.8903 4.5446 8.2600 0.0000 -0.0000 0.0000 86.1112 -5.3279 38.3520 -16.2119 25.8071 -3.7377 0.0000 0.0000 5.7482 -11.5569 -30.8530 5.9866 7.1250 -0.0000 -0.0000 22.9522 -59.8587 -8.5960
-28.1145 17.0626 0.5050 29.9581 86.3544 30.4599 0.0000 0.0000 0.0000 -15.7025 2.3104 12.0301 0.0325 -1.1635 -3.1987 0.1369 8.8927 -14.9264 0.3961 -4.0411 -11.1924 0.0000 0.0000 0.0000 12.8230 -6.9984 7.8453 -0.0027 -0.3346 0.9194 -0.7434 3.0453 -15.5421 -0.1132 -2.1689 5.9726 -3.7937 1.3761 2.1779 -0.2286 1.7230 -0.6980 1.8215 0.9078 -2.0437 4.2661 1.8635 -22.7234 -1.7783 1.6690 21.8002 -1.0798 0.9317 10.8449 -0.0000 0.0000 0.0000 -86.9580 1.9090 39.5931 12.0836 -19.9298 -2.1307 -0.0000 -0.0000 16.7021 13.7774 -25.4095 -6.0062 -7.1250 0.0000 -0.0000 -9.6326 4.2292 9.0269 -0.0000 0.0000 0.0000 86.1917 -5.3038 38.4109 -16.2457 25.8526 -3.7524 0.0000 0.0000 5.7792 -11.4285 -31.1487 5.9695 7.1250 -0.0000 -0.0000 23.3284 -60.0979 -8.8806
-28.1166 17.0632 0.5059 29.0803 86.3600 29.5803 0.0000 0.0000 0.0000 -15.6170 2.3614 11.9926 0.0320 -1.1555 -3.1768 0.1304 8.9345 -14.8804 0.4293 -4.2049 -11.6538 0.0000 0.0000 0.0000 12.9149 -6.9521 7.8279 -0.0029 -0.3475 0.9549 -0.7427 3.0137 -15.5390 -0.1056 -2.0954 5.7693 -3.8253 1.3784 2.1933 -0.1598 1.7254 -0.6869 1.9096 0.9095 -2.0442 4.2612 1.8668 -22.6563 -1.8632 1.7001 21.7369 -1.1050 0.9340 10.8106 0.0000 -0.0000 0.0000 -87.0476 1.8958 39.5161 12.1083 -19.9669 -2.1391 -0.0000 -0.0000 16.7771 14.6615 -24.8753 -6.2803 -7.1250 0.0000 -0.0000 -9.0626 4.6446 8.4069 0.0000 -0.0000 0.0000 86.0773 -5.3179 38.5083 -16.3102 25.9395 -3.7806 0.0000 0.0000 5.7172 -11.4391 -31.4122 6.0202 7.1250 -0.0000 -0.0000 23.5379 -60.3395 -9.1023
-28.1174 17.0632 0.5066 30.7444 86.2803 31.2864 0.0000 0.0000 0.0000 -15.7689 2.4039 11.8808 0.0307 -1.1320 -3.1120 0.1277 8.9251 -14.8295 0.4611 -4.3557 -12.0795 0.0000 0.0000 0.0000 12.7021 -7.0979 7.7148 -0.0030 -0.3559 0.9779 -0.7334 3.1268 -15.4214 -0.0943 -1.9805 5.4517 -3.9903 1.3922 2.2256 -0.1993 1.7359 -0.7449 1.9591 0.9191 -2.1267 4.3083 1.8498 -22.6101 -1.9179 1.6775 21.7446 -1.1364 0.9214 10.8050 0.0000 -0.0000 0.0000 -87.0591 1.9771 39.3732 12.1202 -19.9847 -2.1432 -0.0000 -0.0000 16.9976 13.2670 -25.3416 -5.7627 -7.1250 0.0000 -0.0000 -9.9384 4.3645 9.2969 0.0000 -0.0000 0.0000 86.0781 -5.4021 38.5012 -16.3355 25.9735 -3.7917 0.0000 0.0000 5.7079 -11.4663 -31.1781 5.9947 7.1250 -0.0000 -0.0000 23.3135 -60.1335 -8.8945
-28.1151 17.0626 0.5065 31.2467 86.2321 31.8699 0.0000 0.0000 0.0000 -15.8629 2.3401 11.8366 0.0310 -1.1358 -3.1225 0.1325 8.9157 -14.8897 0.4512 -4.3096 -11.9493 0.0000 0.0000 0.0000 12.5289 -7.3725 7.5129 -0.0033 -0.3728 1.0243 -0.7239 3.3686 -15.2858 -0.0831 -1.8595 5.1175 -4.0434 1.4001 2.0865 -0.2267 1.7516 -0.7310 1.9637 0.9257 -2.0360 4.3527 1.8556 -22.6900 -1.9352 1.6706 21.7775 -1.1510 0.9195 10.8325 0.0000 -0.0000 0.0000 -87.0488 1.9164 39.3056 12.1115 -19.9716 -2.1402 -0.0000 -0.0000 17.0933 13.1462 -25.4722 -5.7359 -7.1250 0.0000 -0.0000 -10.0188 4.2502 9.3962 0.0000 -0.0000 0.0000 86.1087 -5.3124 38.4278 -16.2947 25.9186 -3.7739 0.0000 0.0000 5.7435 -11.4532 -30.8417 5.9299 7.1250 -0.0000 -0.0000 23.0507 -59.8245 -8.6164
